<svg width="230" height="32" viewBox="0 0 230 32" fill="none" xmlns="http://www.w3.org/2000/svg">
<g id="Vector reserve" clip-path="url(#clip0_136_93974)">
<path id="Vector" d="M16.688 9.46451H13.1761L8.46585 20.0759L8.46251 20.0792L3.81898 9.46451H1.85942L1.85608 9.45801L0 9.46451L6.5864 24.3257H6.59308L8.34567 28.2733L16.688 9.46451Z" fill="white"/>
<path id="Vector_2" d="M21.465 18.1266H28.5555V15.4526H21.465V12.2231H29.4935V9.4646H17.9531V24.3258H29.7773V21.5674H21.465V18.1266Z" fill="white"/>
<path id="Vector_3" d="M40.0524 12.1386C41.5813 12.1386 42.8665 12.7332 43.8914 13.8801L46.1614 11.8429C44.7226 10.1437 42.5193 9.21118 39.8788 9.21118C35.1251 9.21118 31.5898 12.418 31.5898 16.8952C31.5898 21.3724 35.1251 24.5825 39.8587 24.5825C42.5193 24.5825 44.7226 23.6468 46.1647 21.928L43.8947 19.8908C42.8699 21.0573 41.5813 21.6518 40.0557 21.6518C37.1981 21.6518 35.1685 19.6991 35.1685 16.8952C35.1685 14.0913 37.1981 12.1386 40.0557 12.1386H40.0524Z" fill="white"/>
<path id="Vector_4" d="M46.6621 12.2653H51.5493V24.3258H55.0846V12.2653H59.9684V9.4646H46.6621V12.2653Z" fill="white"/>
<path id="Vector_5" d="M69.0451 9.20776C64.2247 9.20776 60.6895 12.4763 60.6895 16.8918C60.6895 21.3073 64.2213 24.5791 69.0451 24.5791C73.8689 24.5791 77.4008 21.33 77.4008 16.8918C77.4008 12.4536 73.8456 9.20776 69.0451 9.20776ZM69.0451 21.6484C66.3178 21.6484 64.2681 19.7152 64.2681 16.8918C64.2681 14.0684 66.3178 12.1352 69.0451 12.1352C71.7725 12.1352 73.8222 14.0684 73.8222 16.8918C73.8222 19.7152 71.7725 21.6484 69.0451 21.6484Z" fill="white"/>
<path id="Vector_6" d="M93.305 14.8546C93.305 11.5211 90.7512 9.46118 86.6752 9.46118H80.0654V24.3224H83.6007V20.1831H86.8521L89.7965 24.3224H93.5921L90.167 19.5463C92.1533 18.7178 93.3083 17.0835 93.3083 14.8546H93.305ZM86.4782 17.4441H83.5973V12.2651H86.4782C88.6381 12.2651 89.7297 13.2203 89.7297 14.8546C89.7297 16.4889 88.6381 17.4441 86.4782 17.4441Z" fill="white"/>
<path id="Vector_7" d="M140.207 14.8546C140.207 11.5211 137.654 9.46118 133.578 9.46118H126.968V24.3224H130.503V20.1831H133.754L136.699 24.3224H140.494L137.069 19.5463C139.056 18.7178 140.211 17.0835 140.211 14.8546H140.207ZM133.381 17.4441H130.503V12.2651H133.381C135.54 12.2651 136.632 13.2203 136.632 14.8546C136.632 16.4889 135.54 17.4441 133.381 17.4441Z" fill="white"/>
<path id="Vector_8" d="M146.513 18.1266H153.603V15.4526H146.513V12.2231H154.541V9.4646H143.001V24.3258H154.825V21.5674H146.513V18.1266Z" fill="white"/>
<path id="Vector_9" d="M160.257 13.6687C160.257 12.733 161.064 11.9695 163.158 11.9695C164.51 11.9695 165.972 12.3529 167.391 13.1359L168.482 10.5236C167.063 9.65288 165.1 9.20776 163.181 9.20776C158.841 9.20776 156.745 11.3099 156.745 13.8377C156.745 19.3578 165.625 17.4474 165.625 20.2286C165.625 21.1416 164.773 21.8206 162.68 21.8206C160.848 21.8206 158.928 21.1838 157.643 20.2708L156.444 22.8603C157.796 23.8805 160.24 24.5791 162.66 24.5791C167.023 24.5791 169.14 22.4574 169.14 19.9719C169.14 14.5167 160.26 16.4044 160.26 13.6655L160.257 13.6687Z" fill="white"/>
<path id="Vector_10" d="M175.069 18.1266H182.159V15.4526H175.069V12.2231H183.097V9.4646H171.557V24.3258H183.381V21.5674H175.069V18.1266Z" fill="white"/>
<path id="Vector_11" d="M199.438 14.8546C199.438 11.5211 196.884 9.46118 192.808 9.46118H186.198V24.3224H189.733V20.1831H192.985L195.929 24.3224H199.725L196.3 19.5463C198.286 18.7178 199.441 17.0835 199.441 14.8546H199.438ZM192.611 17.4441H189.73V12.2651H192.611C194.771 12.2651 195.863 13.2203 195.863 14.8546C195.863 16.4889 194.771 17.4441 192.611 17.4441Z" fill="white"/>
<path id="Vector_12" d="M221.692 21.5674V18.1266H228.779V15.4526H221.692V12.2231H229.72V9.4646H218.18V24.3258H230V21.5674H221.692Z" fill="white"/>
<path id="Vector_13" d="M98.6494 16.0016L103.149 22.2821L110.113 32L121.577 15.9984L110.113 0L98.6494 16.0016ZM101.681 16.0016L107.766 7.50533L104.071 19.3352L101.681 16.0016ZM105.88 21.8629L110.106 8.33709L114.323 21.8954L110.113 27.7697L105.88 21.8597V21.8629ZM118.545 16.0016L116.135 19.3677L112.44 7.47609L118.549 16.0016H118.545Z" fill="white"/>
<path id="Vector_14" d="M216.894 9.46451H213.398L208.688 20.0792L204.041 9.46451H201.871L201.868 9.45801H200.209L208.561 28.2961L216.647 10.0623L216.91 9.46451L216.914 9.45801L216.894 9.46451Z" fill="white"/>
</g>
<defs>
<clipPath id="clip0_136_93974">
<rect width="230" height="32" fill="white"/>
</clipPath>
</defs>
</svg>
